<svg version="1.1" id="Layer_1" xmlns="http://www.w3.org/2000/svg" xmlns:xlink="http://www.w3.org/1999/xlink" x="0px" y="0px"
	 width="100%" viewBox="0 0 1332 382" enable-background="new 0 0 1332 382" xml:space="preserve">
<path fill="#FEFEFE" opacity="1.000000" stroke="none" 
	d="
M941.000000,383.000000 
	C627.333374,383.000000 314.166748,383.000000 1.000084,383.000000 
	C1.000056,255.666718 1.000056,128.333435 1.000028,1.000118 
	C444.999878,1.000079 888.999756,1.000079 1332.999756,1.000039 
	C1332.999756,128.333206 1332.999756,255.666428 1332.999878,382.999817 
	C1202.500000,383.000000 1072.000000,383.000000 941.000000,383.000000 
M632.929871,277.321747 
	C637.369202,257.018341 641.808472,236.714966 646.413391,215.654037 
	C651.216614,215.654037 655.852722,215.591110 660.486145,215.676575 
	C663.482178,215.731842 666.497437,215.825272 669.463928,216.210739 
	C681.702942,217.800980 686.594238,222.173904 688.368286,234.205750 
	C690.845825,251.008133 692.783447,267.889709 695.124329,284.713409 
	C695.318604,286.110016 696.766235,288.403992 697.730408,288.456238 
	C707.534851,288.987274 717.358826,289.234650 727.179688,289.339478 
	C730.164490,289.371338 731.478333,287.850494 730.914795,284.438110 
	C729.426208,275.423737 728.476929,266.321320 727.049072,257.295685 
	C724.066711,238.443024 724.566284,218.389191 708.449219,203.699677 
	C710.186951,203.107117 711.413086,202.735382 712.605225,202.275726 
	C742.917664,190.587906 752.467468,171.821808 748.556763,145.150925 
	C746.107605,128.447327 735.589111,117.378876 718.638489,116.010368 
	C698.266907,114.365669 677.764404,114.219124 657.310974,113.781555 
	C650.521973,113.636314 643.685486,114.393013 636.923401,115.186691 
	C635.098328,115.400887 632.260559,116.988205 631.940125,118.408340 
	C629.771545,128.020126 628.153809,137.756210 626.255920,148.002457 
	C635.972046,148.002457 644.444763,148.122864 652.911377,147.949005 
	C656.838013,147.868362 661.017456,147.968964 662.728149,142.929398 
	C663.066711,141.932129 665.133057,141.216827 666.518799,140.927383 
	C678.634338,138.396881 690.701416,138.751831 702.616699,142.113129 
	C707.365723,143.452820 710.562744,146.591690 712.581482,151.206360 
	C718.192749,164.033417 708.845459,186.706589 691.534729,187.252563 
	C679.054321,187.646194 666.587036,188.453568 654.112366,189.043427 
	C653.702698,189.062790 653.276001,188.721695 652.727051,188.494843 
	C653.720337,182.956909 654.698425,177.504105 655.559265,172.704697 
	C644.776794,172.704697 634.638245,172.850967 624.507812,172.627289 
	C620.841248,172.546341 619.777405,174.095703 619.080994,177.392715 
	C612.956421,206.389206 606.630249,235.343048 600.424133,264.322418 
	C598.655945,272.578583 597.084839,280.876984 595.453979,289.003723 
	C596.380188,289.419830 596.681458,289.671997 596.984375,289.674103 
	C603.648071,289.720703 610.312256,289.709473 616.975769,289.770538 
	C628.203308,289.873444 629.359680,289.032288 632.929871,277.321747 
M307.863190,113.564415 
	C303.614441,112.745155 301.271027,114.661240 299.376160,118.457283 
	C295.884277,125.452782 291.768311,132.133682 288.053589,139.021774 
	C282.601990,149.130386 277.065552,159.202560 271.975464,169.493164 
	C269.100403,175.305634 270.407013,176.828735 276.774567,177.122833 
	C282.086853,177.368195 287.520966,177.332977 292.652008,178.509048 
	C298.246002,179.791260 301.649719,177.928162 304.237152,173.348236 
	C307.430420,167.695953 310.537109,161.992050 313.862335,156.418488 
	C314.977539,154.549210 316.648102,153.011246 318.330383,151.005127 
	C318.887695,152.205276 319.212219,152.621399 319.271545,153.072418 
	C321.983978,173.694550 324.670258,194.320129 327.368011,214.944199 
	C327.806793,218.298874 325.487732,218.977921 323.056213,219.045380 
	C311.091095,219.377304 299.122681,219.637970 287.153839,219.740585 
	C285.160004,219.757690 283.158417,218.870453 280.773590,218.310242 
	C283.566254,212.498413 285.920502,207.364288 288.484314,202.337006 
	C290.571838,198.243637 289.124237,195.796127 285.003845,195.103104 
	C279.285065,194.141251 273.492126,193.584290 267.714996,193.016464 
	C262.936554,192.546768 259.514038,194.543457 257.032715,198.779312 
	C240.967911,226.203552 224.774368,253.552368 208.683441,280.961395 
	C207.375931,283.188599 206.520233,285.681061 205.310394,288.370850 
	C206.670929,288.698730 207.433395,289.026031 208.203964,289.046448 
	C218.182663,289.310303 228.166351,289.432037 238.139633,289.823334 
	C241.033264,289.936859 242.622421,289.007446 243.974304,286.428070 
	C249.693085,275.516907 255.752457,264.783447 261.414825,253.844009 
	C263.068573,250.649063 264.902069,249.292984 268.651093,249.330200 
	C288.646118,249.528717 308.644135,249.418777 328.641113,249.434265 
	C330.075226,249.435379 331.509216,249.586090 332.435547,249.638519 
	C333.791199,263.236511 335.102264,276.387085 336.429626,289.701019 
	C346.140198,289.701019 354.624786,289.905090 363.094696,289.640045 
	C370.619843,289.404572 371.720520,287.866516 370.747314,280.417328 
	C368.223389,261.098694 365.723694,241.776642 363.113281,222.469604 
	C358.605804,189.131821 354.075012,155.796967 349.428162,122.478455 
	C348.411163,115.186493 347.093536,114.059624 339.773956,113.866631 
	C329.449707,113.594398 319.116791,113.649384 307.863190,113.564415 
M980.877014,171.092178 
	C975.204285,172.031937 973.472229,177.095871 971.166565,181.082474 
	C952.578247,213.222519 934.228821,245.500717 915.797241,277.731476 
	C913.615051,281.547394 911.377136,285.331482 908.795776,289.764435 
	C920.655945,289.764435 931.617065,289.643890 942.572327,289.841095 
	C945.684204,289.897095 947.323975,288.831207 948.759155,286.137909 
	C954.710144,274.969421 960.778931,263.859039 967.095276,252.894821 
	C968.026794,251.277832 970.509766,249.596146 972.293884,249.575531 
	C992.446350,249.342758 1012.603088,249.503738 1032.757080,249.351776 
	C1035.958862,249.327637 1036.806396,250.791916 1037.061401,253.414734 
	C1038.059448,263.675568 1039.094604,273.932922 1040.054565,284.197266 
	C1040.216675,285.930786 1040.077393,287.692505 1040.077393,289.374359 
	C1053.228027,289.374359 1065.590942,289.374359 1077.748047,289.374359 
	C1075.474976,273.382538 1073.301147,257.740173 1071.018188,242.113754 
	C1068.080933,222.009537 1065.149170,201.903229 1061.938232,181.842117 
	C1061.581299,179.611465 1059.692871,176.140030 1058.048706,175.845520 
	C1048.306030,174.100189 1038.425903,173.122620 1027.485718,171.747879 
	C1029.773315,188.548462 1031.908081,204.227005 1034.023071,219.759644 
	C1017.563965,219.759644 1001.251160,219.759644 984.679871,219.759644 
	C993.416809,203.737320 1001.901733,188.177155 1011.276794,170.984634 
	C1000.501221,170.984634 991.100098,170.984634 980.877014,171.092178 
M407.322906,257.755676 
	C402.043488,267.682526 396.764038,277.609375 391.079468,288.297974 
	C393.853119,288.683563 395.598480,289.091064 397.354248,289.142426 
	C406.175598,289.400452 415.006104,289.427124 423.819366,289.836609 
	C426.986420,289.983826 428.539337,288.781860 429.922394,286.081665 
	C435.387421,275.412262 441.164154,264.902466 446.625793,254.231369 
	C447.929810,251.683548 449.422180,250.657776 452.331055,250.625687 
	C465.492981,250.480469 478.650940,249.976227 491.812866,249.829575 
	C497.793274,249.762924 503.835785,249.793671 509.748535,250.562012 
	C516.645203,251.458160 518.733643,254.251236 519.163696,261.248108 
	C519.531555,267.233734 519.611450,273.246246 520.224426,279.205109 
	C520.893799,285.710571 523.523132,288.507294 529.990112,289.232849 
	C535.264465,289.824615 540.628540,289.594635 545.950806,289.785309 
	C555.598694,290.130920 557.262329,288.773224 556.226379,279.010071 
	C554.645264,264.109833 552.518494,249.266312 550.540466,234.409744 
	C549.471375,226.379654 548.230225,218.372467 546.882812,209.088150 
	C537.680298,209.088150 528.870361,209.055771 520.060913,209.103348 
	C516.292725,209.123703 513.494568,210.359283 513.662354,214.860596 
	C513.794678,218.410324 511.206360,219.670410 508.501190,219.711212 
	C496.181824,219.897034 483.854797,219.901016 471.540161,219.589096 
	C470.223175,219.555725 467.717224,216.830795 467.904144,215.712357 
	C468.682220,211.056778 466.230133,210.084900 462.592468,209.930756 
	C454.440643,209.585297 446.278229,209.419678 438.138306,208.897308 
	C434.866455,208.687347 433.118591,209.710297 431.562317,212.681366 
	C423.760864,227.575089 415.689301,242.327347 407.322906,257.755676 
M1262.454346,138.803192 
	C1259.994263,150.887375 1257.401245,162.946930 1255.155640,175.070862 
	C1254.489746,178.666733 1253.211304,179.990555 1249.378418,179.911606 
	C1236.717896,179.650757 1224.048828,179.813278 1211.382935,179.813293 
	C1207.598389,179.813293 1203.813843,179.813293 1199.812500,179.813293 
	C1200.857788,187.329483 1202.268921,194.206497 1202.627930,201.138016 
	C1202.894409,206.279831 1204.854614,208.212997 1209.820312,208.338272 
	C1220.133301,208.598465 1230.436035,209.246933 1240.747681,209.593109 
	C1245.580933,209.755371 1246.904297,211.662903 1245.858398,216.521118 
	C1241.303711,237.676239 1237.039429,258.894409 1232.757568,280.107391 
	C1231.262085,287.515533 1232.300415,289.075134 1239.913330,289.540619 
	C1247.053833,289.977234 1254.242676,289.564178 1261.398682,289.834412 
	C1264.506104,289.951752 1265.710571,288.974792 1266.353638,285.887238 
	C1277.836304,230.741699 1289.442749,175.621948 1300.998657,120.491653 
	C1301.359375,118.770653 1301.464600,116.996109 1301.842407,114.049858 
	C1290.704590,113.885918 1280.258545,113.646347 1269.814697,113.726379 
	C1268.887329,113.733498 1267.446899,115.695480 1267.145020,116.963844 
	C1265.486206,123.932739 1264.108276,130.968445 1262.454346,138.803192 
M146.374374,280.161865 
	C147.000000,281.145416 147.806015,282.058807 148.220291,283.124542 
	C150.086807,287.926270 153.697815,288.986603 158.511414,288.872406 
	C164.994583,288.718597 171.492859,289.322174 177.987518,289.490509 
	C182.184204,289.599304 186.386002,289.510956 190.630463,289.510956 
	C190.525406,288.879181 190.566177,288.501373 190.406403,288.252045 
	C172.622253,260.498169 154.840317,232.742828 136.957504,205.052612 
	C136.291870,204.021912 134.635651,203.030746 133.441193,203.030899 
	C112.118484,203.033447 90.794891,203.131927 69.475197,203.454666 
	C68.065521,203.476028 65.717796,205.253326 65.434502,206.565399 
	C59.576164,233.698654 53.954094,260.882904 48.104729,288.922333 
	C59.730785,288.922333 71.083656,288.922333 82.748917,288.922333 
	C82.837486,288.593201 83.081146,287.817657 83.253922,287.026642 
	C87.514130,267.521942 91.671806,247.994003 96.089630,228.525101 
	C97.154678,223.831543 99.076759,219.332458 100.604713,214.743942 
	C101.213577,214.745102 101.822433,214.746277 102.431290,214.747437 
	C118.993073,234.945206 131.819794,257.708221 146.374374,280.161865 
M1151.481323,119.069359 
	C1139.410278,175.376877 1127.339233,231.684402 1115.059570,288.964905 
	C1127.258423,288.964905 1138.447998,288.964905 1150.094971,288.964905 
	C1152.393433,278.882141 1154.715332,268.328827 1157.214722,257.817719 
	C1161.026123,241.789978 1164.948242,225.788528 1168.847900,209.781876 
	C1170.735352,202.034119 1173.024780,194.366592 1174.530518,186.546875 
	C1178.809448,164.324509 1182.664795,142.020447 1186.974365,119.804260 
	C1187.755005,115.780052 1186.750122,113.926025 1182.890991,113.909813 
	C1174.573730,113.874863 1166.236938,113.806274 1157.950317,114.369606 
	C1155.782471,114.516975 1153.768677,116.931786 1151.481323,119.069359 
M462.362518,158.826691 
	C457.148346,168.025467 451.934174,177.224243 446.365723,187.048019 
	C449.155548,187.456757 451.079041,187.936264 453.013885,187.987640 
	C461.164551,188.204010 469.328247,188.104111 477.466980,188.517136 
	C480.911896,188.691986 482.390656,187.289032 483.837311,184.425400 
	C488.109528,175.968704 492.538086,167.575043 497.334320,159.408585 
	C498.784332,156.939636 501.632599,155.291885 503.840424,153.268005 
	C505.010864,156.089035 506.774933,158.818588 507.226776,161.750351 
	C508.135529,167.647217 508.203613,173.668121 508.858582,179.611404 
	C509.352448,184.092911 512.146057,187.433838 516.472473,187.683365 
	C525.326050,188.193970 534.229736,187.836487 543.858093,187.836487 
	C540.433411,162.946655 537.043335,138.308212 533.638916,113.565697 
	C519.191162,113.565697 505.719757,113.713020 492.255493,113.466881 
	C488.683472,113.401581 486.957855,114.755905 485.351929,117.691185 
	C477.930115,131.256729 470.302856,144.709900 462.362518,158.826691 
M894.251282,266.793213 
	C894.524841,265.004089 894.798401,263.214966 895.152405,260.899475 
	C893.113037,260.899475 891.313416,260.899475 889.513794,260.899475 
	C871.368347,260.899353 853.222351,260.969086 835.077698,260.849396 
	C830.605286,260.819916 826.104736,260.393951 821.676392,259.745270 
	C817.746216,259.169525 815.971436,256.566406 816.681580,252.559540 
	C817.058594,250.432419 817.583801,248.330017 818.085266,246.226746 
	C819.859131,238.786148 821.741394,231.369934 823.401550,223.904221 
	C824.307678,219.829361 822.589905,217.321503 818.237061,217.442566 
	C811.430908,217.631882 804.629333,218.021912 797.829346,218.391266 
	C792.455017,218.683182 789.566711,221.541504 788.408386,226.854034 
	C784.369324,245.378845 780.174011,263.870728 775.864990,282.334717 
	C774.909546,286.428528 775.904419,288.103027 780.243225,288.177551 
	C804.529297,288.594513 828.811096,289.336823 853.098206,289.578766 
	C863.733154,289.684753 874.375977,288.826477 885.017883,288.491455 
	C888.785095,288.372833 890.687500,286.619019 891.262024,282.873840 
	C892.043762,277.778687 893.154846,272.734039 894.251282,266.793213 
M840.991516,140.623627 
	C842.282654,133.923660 843.484131,127.204704 844.897705,120.530678 
	C845.769897,116.412926 843.904541,114.218193 840.128723,114.125160 
	C830.680969,113.892395 821.223694,114.048355 811.592468,114.048355 
	C811.422913,114.565796 811.162903,115.167198 811.029297,115.795494 
	C805.389465,142.324020 799.844177,168.873154 794.054871,195.368973 
	C792.997986,200.205978 794.763367,202.385178 799.208740,202.871613 
	C806.644165,203.685287 814.137817,204.043472 821.535645,205.095108 
	C825.638245,205.678329 827.067505,204.184723 827.867920,200.450577 
	C832.087524,180.764206 836.487183,161.116394 840.991516,140.623627 
M112.764717,181.967789 
	C114.116791,182.253632 115.467422,182.779388 116.821167,182.787521 
	C127.976418,182.854568 139.137680,183.010315 150.283691,182.682663 
	C152.757294,182.609955 155.735153,181.308609 157.527985,179.583008 
	C166.162521,171.272293 174.530106,162.680176 182.880203,154.078979 
	C193.545044,143.093430 204.155319,132.053177 214.634720,120.891563 
	C215.856705,119.590042 216.099274,117.368935 216.795898,115.574158 
	C214.977081,114.982422 213.164703,113.904205 211.338394,113.880081 
	C201.517197,113.750313 191.685776,113.698334 181.874084,114.059631 
	C179.548019,114.145294 176.697739,115.348450 175.080597,117.005623 
	C154.267212,138.334091 133.633820,159.838242 112.764717,181.967789 
M1004.316833,119.798088 
	C997.824280,130.895325 991.331726,141.992569 984.453308,153.749374 
	C998.501465,153.749374 1011.599792,153.824020 1024.696655,153.721970 
	C1032.838989,153.658524 1041.002441,153.635681 1049.113159,153.022537 
	C1056.042236,152.498688 1058.324463,149.716202 1057.658936,142.848648 
	C1056.809204,134.082916 1055.518677,125.352699 1054.112915,116.656548 
	C1053.922241,115.477562 1051.968018,113.704750 1050.818115,113.695236 
	C1038.848022,113.596298 1026.872803,113.698906 1014.904663,113.980446 
	C1010.826721,114.076370 1006.995361,115.283798 1004.316833,119.798088 
M94.342987,182.658508 
	C97.329575,182.466278 100.363129,182.521835 103.281326,181.968765 
	C104.582207,181.722229 106.454193,180.431000 106.705856,179.308716 
	C111.249115,159.047913 115.579132,138.739304 119.969879,118.444214 
	C120.545265,115.784630 119.616119,114.029297 116.840042,114.029160 
	C107.874222,114.028732 98.890251,113.937569 89.956474,114.531387 
	C87.946274,114.665001 84.827454,117.141563 84.394142,119.036865 
	C80.025734,138.143875 76.153732,157.363785 72.029198,176.527649 
	C71.260506,180.099228 72.754593,181.494202 76.004303,181.704132 
	C81.803154,182.078690 87.605133,182.404739 94.342987,182.658508 
z"/>
<path fill="#040404" opacity="1.000000" stroke="none" 
	d="
M632.811890,277.705627 
	C629.359680,289.032288 628.203308,289.873444 616.975769,289.770538 
	C610.312256,289.709473 603.648071,289.720703 596.984375,289.674103 
	C596.681458,289.671997 596.380188,289.419830 595.453979,289.003723 
	C597.084839,280.876984 598.655945,272.578583 600.424133,264.322418 
	C606.630249,235.343048 612.956421,206.389206 619.080994,177.392715 
	C619.777405,174.095703 620.841248,172.546341 624.507812,172.627289 
	C634.638245,172.850967 644.776794,172.704697 655.559265,172.704697 
	C654.698425,177.504105 653.720337,182.956909 652.727051,188.494843 
	C653.276001,188.721695 653.702698,189.062790 654.112366,189.043427 
	C666.587036,188.453568 679.054321,187.646194 691.534729,187.252563 
	C708.845459,186.706589 718.192749,164.033417 712.581482,151.206360 
	C710.562744,146.591690 707.365723,143.452820 702.616699,142.113129 
	C690.701416,138.751831 678.634338,138.396881 666.518799,140.927383 
	C665.133057,141.216827 663.066711,141.932129 662.728149,142.929398 
	C661.017456,147.968964 656.838013,147.868362 652.911377,147.949005 
	C644.444763,148.122864 635.972046,148.002457 626.255920,148.002457 
	C628.153809,137.756210 629.771545,128.020126 631.940125,118.408340 
	C632.260559,116.988205 635.098328,115.400887 636.923401,115.186691 
	C643.685486,114.393013 650.521973,113.636314 657.310974,113.781555 
	C677.764404,114.219124 698.266907,114.365669 718.638489,116.010368 
	C735.589111,117.378876 746.107605,128.447327 748.556763,145.150925 
	C752.467468,171.821808 742.917664,190.587906 712.605225,202.275726 
	C711.413086,202.735382 710.186951,203.107117 708.449219,203.699677 
	C724.566284,218.389191 724.066711,238.443024 727.049072,257.295685 
	C728.476929,266.321320 729.426208,275.423737 730.914795,284.438110 
	C731.478333,287.850494 730.164490,289.371338 727.179688,289.339478 
	C717.358826,289.234650 707.534851,288.987274 697.730408,288.456238 
	C696.766235,288.403992 695.318604,286.110016 695.124329,284.713409 
	C692.783447,267.889709 690.845825,251.008133 688.368286,234.205750 
	C686.594238,222.173904 681.702942,217.800980 669.463928,216.210739 
	C666.497437,215.825272 663.482178,215.731842 660.486145,215.676575 
	C655.852722,215.591110 651.216614,215.654037 646.413391,215.654037 
	C641.808472,236.714966 637.369202,257.018341 632.811890,277.705627 
z"/>
<path fill="#030303" opacity="1.000000" stroke="none" 
	d="
M308.325378,113.564438 
	C319.116791,113.649384 329.449707,113.594398 339.773956,113.866631 
	C347.093536,114.059624 348.411163,115.186493 349.428162,122.478455 
	C354.075012,155.796967 358.605804,189.131821 363.113281,222.469604 
	C365.723694,241.776642 368.223389,261.098694 370.747314,280.417328 
	C371.720520,287.866516 370.619843,289.404572 363.094696,289.640045 
	C354.624786,289.905090 346.140198,289.701019 336.429626,289.701019 
	C335.102264,276.387085 333.791199,263.236511 332.435547,249.638519 
	C331.509216,249.586090 330.075226,249.435379 328.641113,249.434265 
	C308.644135,249.418777 288.646118,249.528717 268.651093,249.330200 
	C264.902069,249.292984 263.068573,250.649063 261.414825,253.844009 
	C255.752457,264.783447 249.693085,275.516907 243.974304,286.428070 
	C242.622421,289.007446 241.033264,289.936859 238.139633,289.823334 
	C228.166351,289.432037 218.182663,289.310303 208.203964,289.046448 
	C207.433395,289.026031 206.670929,288.698730 205.310394,288.370850 
	C206.520233,285.681061 207.375931,283.188599 208.683441,280.961395 
	C224.774368,253.552368 240.967911,226.203552 257.032715,198.779312 
	C259.514038,194.543457 262.936554,192.546768 267.714996,193.016464 
	C273.492126,193.584290 279.285065,194.141251 285.003845,195.103104 
	C289.124237,195.796127 290.571838,198.243637 288.484314,202.337006 
	C285.920502,207.364288 283.566254,212.498413 280.773590,218.310242 
	C283.158417,218.870453 285.160004,219.757690 287.153839,219.740585 
	C299.122681,219.637970 311.091095,219.377304 323.056213,219.045380 
	C325.487732,218.977921 327.806793,218.298874 327.368011,214.944199 
	C324.670258,194.320129 321.983978,173.694550 319.271545,153.072418 
	C319.212219,152.621399 318.887695,152.205276 318.330383,151.005127 
	C316.648102,153.011246 314.977539,154.549210 313.862335,156.418488 
	C310.537109,161.992050 307.430420,167.695953 304.237152,173.348236 
	C301.649719,177.928162 298.246002,179.791260 292.652008,178.509048 
	C287.520966,177.332977 282.086853,177.368195 276.774567,177.122833 
	C270.407013,176.828735 269.100403,175.305634 271.975464,169.493164 
	C277.065552,159.202560 282.601990,149.130386 288.053589,139.021774 
	C291.768311,132.133682 295.884277,125.452782 299.376160,118.457283 
	C301.271027,114.661240 303.614441,112.745155 308.325378,113.564438 
z"/>
<path fill="#040404" opacity="1.000000" stroke="none" 
	d="
M981.287964,171.038406 
	C991.100098,170.984634 1000.501221,170.984634 1011.276794,170.984634 
	C1001.901733,188.177155 993.416809,203.737320 984.679871,219.759644 
	C1001.251160,219.759644 1017.563965,219.759644 1034.023071,219.759644 
	C1031.908081,204.227005 1029.773315,188.548462 1027.485718,171.747879 
	C1038.425903,173.122620 1048.306030,174.100189 1058.048706,175.845520 
	C1059.692871,176.140030 1061.581299,179.611465 1061.938232,181.842117 
	C1065.149170,201.903229 1068.080933,222.009537 1071.018188,242.113754 
	C1073.301147,257.740173 1075.474976,273.382538 1077.748047,289.374359 
	C1065.590942,289.374359 1053.228027,289.374359 1040.077393,289.374359 
	C1040.077393,287.692505 1040.216675,285.930786 1040.054565,284.197266 
	C1039.094604,273.932922 1038.059448,263.675568 1037.061401,253.414734 
	C1036.806396,250.791916 1035.958862,249.327637 1032.757080,249.351776 
	C1012.603088,249.503738 992.446350,249.342758 972.293884,249.575531 
	C970.509766,249.596146 968.026794,251.277832 967.095276,252.894821 
	C960.778931,263.859039 954.710144,274.969421 948.759155,286.137909 
	C947.323975,288.831207 945.684204,289.897095 942.572327,289.841095 
	C931.617065,289.643890 920.655945,289.764435 908.795776,289.764435 
	C911.377136,285.331482 913.615051,281.547394 915.797241,277.731476 
	C934.228821,245.500717 952.578247,213.222519 971.166565,181.082474 
	C973.472229,177.095871 975.204285,172.031937 981.287964,171.038406 
z"/>
<path fill="#040404" opacity="1.000000" stroke="none" 
	d="
M407.517792,257.442505 
	C415.689301,242.327347 423.760864,227.575089 431.562317,212.681366 
	C433.118591,209.710297 434.866455,208.687347 438.138306,208.897308 
	C446.278229,209.419678 454.440643,209.585297 462.592468,209.930756 
	C466.230133,210.084900 468.682220,211.056778 467.904144,215.712357 
	C467.717224,216.830795 470.223175,219.555725 471.540161,219.589096 
	C483.854797,219.901016 496.181824,219.897034 508.501190,219.711212 
	C511.206360,219.670410 513.794678,218.410324 513.662354,214.860596 
	C513.494568,210.359283 516.292725,209.123703 520.060913,209.103348 
	C528.870361,209.055771 537.680298,209.088150 546.882812,209.088150 
	C548.230225,218.372467 549.471375,226.379654 550.540466,234.409744 
	C552.518494,249.266312 554.645264,264.109833 556.226379,279.010071 
	C557.262329,288.773224 555.598694,290.130920 545.950806,289.785309 
	C540.628540,289.594635 535.264465,289.824615 529.990112,289.232849 
	C523.523132,288.507294 520.893799,285.710571 520.224426,279.205109 
	C519.611450,273.246246 519.531555,267.233734 519.163696,261.248108 
	C518.733643,254.251236 516.645203,251.458160 509.748535,250.562012 
	C503.835785,249.793671 497.793274,249.762924 491.812866,249.829575 
	C478.650940,249.976227 465.492981,250.480469 452.331055,250.625687 
	C449.422180,250.657776 447.929810,251.683548 446.625793,254.231369 
	C441.164154,264.902466 435.387421,275.412262 429.922394,286.081665 
	C428.539337,288.781860 426.986420,289.983826 423.819366,289.836609 
	C415.006104,289.427124 406.175598,289.400452 397.354248,289.142426 
	C395.598480,289.091064 393.853119,288.683563 391.079468,288.297974 
	C396.764038,277.609375 402.043488,267.682526 407.517792,257.442505 
z"/>
<path fill="#040404" opacity="1.000000" stroke="none" 
	d="
M1262.544189,138.392212 
	C1264.108276,130.968445 1265.486206,123.932739 1267.145020,116.963844 
	C1267.446899,115.695480 1268.887329,113.733498 1269.814697,113.726379 
	C1280.258545,113.646347 1290.704590,113.885918 1301.842407,114.049858 
	C1301.464600,116.996109 1301.359375,118.770653 1300.998657,120.491653 
	C1289.442749,175.621948 1277.836304,230.741699 1266.353638,285.887238 
	C1265.710571,288.974792 1264.506104,289.951752 1261.398682,289.834412 
	C1254.242676,289.564178 1247.053833,289.977234 1239.913330,289.540619 
	C1232.300415,289.075134 1231.262085,287.515533 1232.757568,280.107391 
	C1237.039429,258.894409 1241.303711,237.676239 1245.858398,216.521118 
	C1246.904297,211.662903 1245.580933,209.755371 1240.747681,209.593109 
	C1230.436035,209.246933 1220.133301,208.598465 1209.820312,208.338272 
	C1204.854614,208.212997 1202.894409,206.279831 1202.627930,201.138016 
	C1202.268921,194.206497 1200.857788,187.329483 1199.812500,179.813293 
	C1203.813843,179.813293 1207.598389,179.813293 1211.382935,179.813293 
	C1224.048828,179.813278 1236.717896,179.650757 1249.378418,179.911606 
	C1253.211304,179.990555 1254.489746,178.666733 1255.155640,175.070862 
	C1257.401245,162.946930 1259.994263,150.887375 1262.544189,138.392212 
z"/>
<path fill="#040404" opacity="1.000000" stroke="none" 
	d="
M146.191895,279.848511 
	C131.819794,257.708221 118.993073,234.945206 102.431290,214.747437 
	C101.822433,214.746277 101.213577,214.745102 100.604713,214.743942 
	C99.076759,219.332458 97.154678,223.831543 96.089630,228.525101 
	C91.671806,247.994003 87.514130,267.521942 83.253922,287.026642 
	C83.081146,287.817657 82.837486,288.593201 82.748917,288.922333 
	C71.083656,288.922333 59.730785,288.922333 48.104729,288.922333 
	C53.954094,260.882904 59.576164,233.698654 65.434502,206.565399 
	C65.717796,205.253326 68.065521,203.476028 69.475197,203.454666 
	C90.794891,203.131927 112.118484,203.033447 133.441193,203.030899 
	C134.635651,203.030746 136.291870,204.021912 136.957504,205.052612 
	C154.840317,232.742828 172.622253,260.498169 190.406403,288.252045 
	C190.566177,288.501373 190.525406,288.879181 190.630463,289.510956 
	C186.386002,289.510956 182.184204,289.599304 177.987518,289.490509 
	C171.492859,289.322174 164.994583,288.718597 158.511414,288.872406 
	C153.697815,288.986603 150.086807,287.926270 148.220291,283.124542 
	C147.806015,282.058807 147.000000,281.145416 146.191895,279.848511 
z"/>
<path fill="#040404" opacity="1.000000" stroke="none" 
	d="
M1151.582764,118.687302 
	C1153.768677,116.931786 1155.782471,114.516975 1157.950317,114.369606 
	C1166.236938,113.806274 1174.573730,113.874863 1182.890991,113.909813 
	C1186.750122,113.926025 1187.755005,115.780052 1186.974365,119.804260 
	C1182.664795,142.020447 1178.809448,164.324509 1174.530518,186.546875 
	C1173.024780,194.366592 1170.735352,202.034119 1168.847900,209.781876 
	C1164.948242,225.788528 1161.026123,241.789978 1157.214722,257.817719 
	C1154.715332,268.328827 1152.393433,278.882141 1150.094971,288.964905 
	C1138.447998,288.964905 1127.258423,288.964905 1115.059570,288.964905 
	C1127.339233,231.684402 1139.410278,175.376877 1151.582764,118.687302 
z"/>
<path fill="#030303" opacity="1.000000" stroke="none" 
	d="
M462.555878,158.515015 
	C470.302856,144.709900 477.930115,131.256729 485.351929,117.691185 
	C486.957855,114.755905 488.683472,113.401581 492.255493,113.466881 
	C505.719757,113.713020 519.191162,113.565697 533.638916,113.565697 
	C537.043335,138.308212 540.433411,162.946655 543.858093,187.836487 
	C534.229736,187.836487 525.326050,188.193970 516.472473,187.683365 
	C512.146057,187.433838 509.352448,184.092911 508.858582,179.611404 
	C508.203613,173.668121 508.135529,167.647217 507.226776,161.750351 
	C506.774933,158.818588 505.010864,156.089035 503.840393,153.268005 
	C501.632599,155.291885 498.784332,156.939636 497.334320,159.408585 
	C492.538086,167.575043 488.109528,175.968704 483.837311,184.425400 
	C482.390656,187.289032 480.911896,188.691986 477.466980,188.517136 
	C469.328247,188.104111 461.164551,188.204010 453.013885,187.987640 
	C451.079041,187.936264 449.155548,187.456757 446.365723,187.048019 
	C451.934174,177.224243 457.148346,168.025467 462.555878,158.515015 
z"/>
<path fill="#040404" opacity="1.000000" stroke="none" 
	d="
M894.187988,267.230469 
	C893.154846,272.734039 892.043762,277.778687 891.262024,282.873840 
	C890.687500,286.619019 888.785095,288.372833 885.017883,288.491455 
	C874.375977,288.826477 863.733154,289.684753 853.098206,289.578766 
	C828.811096,289.336823 804.529297,288.594513 780.243225,288.177551 
	C775.904419,288.103027 774.909546,286.428528 775.864990,282.334717 
	C780.174011,263.870728 784.369324,245.378845 788.408386,226.854034 
	C789.566711,221.541504 792.455017,218.683182 797.829346,218.391266 
	C804.629333,218.021912 811.430908,217.631882 818.237061,217.442566 
	C822.589905,217.321503 824.307678,219.829361 823.401550,223.904221 
	C821.741394,231.369934 819.859131,238.786148 818.085266,246.226746 
	C817.583801,248.330017 817.058594,250.432419 816.681580,252.559540 
	C815.971436,256.566406 817.746216,259.169525 821.676392,259.745270 
	C826.104736,260.393951 830.605286,260.819916 835.077698,260.849396 
	C853.222351,260.969086 871.368347,260.899353 889.513794,260.899475 
	C891.313416,260.899475 893.113037,260.899475 895.152405,260.899475 
	C894.798401,263.214966 894.524841,265.004089 894.187988,267.230469 
z"/>
<path fill="#040404" opacity="1.000000" stroke="none" 
	d="
M840.907959,141.039429 
	C836.487183,161.116394 832.087524,180.764206 827.867920,200.450577 
	C827.067505,204.184723 825.638245,205.678329 821.535645,205.095108 
	C814.137817,204.043472 806.644165,203.685287 799.208740,202.871613 
	C794.763367,202.385178 792.997986,200.205978 794.054871,195.368973 
	C799.844177,168.873154 805.389465,142.324020 811.029297,115.795494 
	C811.162903,115.167198 811.422913,114.565796 811.592468,114.048355 
	C821.223694,114.048355 830.680969,113.892395 840.128723,114.125160 
	C843.904541,114.218193 845.769897,116.412926 844.897705,120.530678 
	C843.484131,127.204704 842.282654,133.923660 840.907959,141.039429 
z"/>
<path fill="#050505" opacity="1.000000" stroke="none" 
	d="
M112.859787,181.632843 
	C133.633820,159.838242 154.267212,138.334091 175.080597,117.005623 
	C176.697739,115.348450 179.548019,114.145294 181.874084,114.059631 
	C191.685776,113.698334 201.517197,113.750313 211.338394,113.880081 
	C213.164703,113.904205 214.977081,114.982422 216.795898,115.574158 
	C216.099274,117.368935 215.856705,119.590042 214.634720,120.891563 
	C204.155319,132.053177 193.545044,143.093430 182.880203,154.078979 
	C174.530106,162.680176 166.162521,171.272293 157.527985,179.583008 
	C155.735153,181.308609 152.757294,182.609955 150.283691,182.682663 
	C139.137680,183.010315 127.976418,182.854568 116.821167,182.787521 
	C115.467422,182.779388 114.116791,182.253632 112.859787,181.632843 
z"/>
<path fill="#050505" opacity="1.000000" stroke="none" 
	d="
M1004.506470,119.488136 
	C1006.995361,115.283798 1010.826721,114.076370 1014.904663,113.980446 
	C1026.872803,113.698906 1038.848022,113.596298 1050.818115,113.695236 
	C1051.968018,113.704750 1053.922241,115.477562 1054.112915,116.656548 
	C1055.518677,125.352699 1056.809204,134.082916 1057.658936,142.848648 
	C1058.324463,149.716202 1056.042236,152.498688 1049.113159,153.022537 
	C1041.002441,153.635681 1032.838989,153.658524 1024.696655,153.721970 
	C1011.599792,153.824020 998.501465,153.749374 984.453308,153.749374 
	C991.331726,141.992569 997.824280,130.895325 1004.506470,119.488136 
z"/>
<path fill="#040404" opacity="1.000000" stroke="none" 
	d="
M93.874397,182.704803 
	C87.605133,182.404739 81.803154,182.078690 76.004303,181.704132 
	C72.754593,181.494202 71.260506,180.099228 72.029198,176.527649 
	C76.153732,157.363785 80.025734,138.143875 84.394142,119.036865 
	C84.827454,117.141563 87.946274,114.665001 89.956474,114.531387 
	C98.890251,113.937569 107.874222,114.028732 116.840042,114.029160 
	C119.616119,114.029297 120.545265,115.784630 119.969879,118.444214 
	C115.579132,138.739304 111.249115,159.047913 106.705856,179.308716 
	C106.454193,180.431000 104.582207,181.722229 103.281326,181.968765 
	C100.363129,182.521835 97.329575,182.466278 93.874397,182.704803 
z"/>
</svg>